# xmcd CD database file
#
# Track frame offsets:
#	150
#	23708
#	43978
#	64218
#	81770
#	98658
#	117653
#	141063
#	161995
#	187098
#	212530
#	237838
#	266148
#	284600
#
# Disc length: 4051 seconds
#
# Revision: 0
# Processed by: cddbd v1.5.1PL0 Copyright (c) Steve Scherf et al.
# Submitted via: CDex 1.51
#
DISCID=d60fd10e
DTITLE=新垣 勉 - 命どぅ宝
DYEAR=2006
DGENRE=Opera
TTITLE0=01.白百合の花が咲く頃
TTITLE1=02.涙そうそう
TTITLE2=03.あなたに
TTITLE3=04.てぃんさぐぬ花
TTITLE4=05.えんどうの花
TTITLE5=06.ふるさとの雨
TTITLE6=07.千の風になって
TTITLE7=08.我した村
TTITLE8=09.風に吹かれて
TTITLE9=10.死んだ男の残したものは
TTITLE10=11.平和のための祈り
TTITLE11=12.青空っていいな
TTITLE12=13.BELIEVE
TTITLE13=14.ひとつだけの命
EXTD=YEAR: 2006
EXTT0=
EXTT1=
EXTT2=
EXTT3=
EXTT4=
EXTT5=
EXTT6=
EXTT7=
EXTT8=
EXTT9=
EXTT10=
EXTT11=
EXTT12=
EXTT13=
PLAYORDER=
